# File created by Blade
# Date/Time:  Tue Apr 07 21:36:59 2015
# Frame Rate: 120.000 fps
#------------------------------------------------------
:FULLY-SPECIFIED
:DEGREES
218
root 9.262248 32.950920 13.457978 128.731420 -84.688813 -113.095399
Spine -1.421030 -6.656100 2.284704
Head 25.340023 -4.439673 0.456777
LeftShoulder -10.500667 41.365078 11.298185
LeftArm 61.271030 13.852692 -76.531157
LeftForeArm -14.770446 0.000000 12.300431
LeftHand 4.045332 0.000000 -19.776757
LeftHandThumb1 -26.253704 0.000000 33.147579
RightShoulder -1.616452 -5.394739 -15.771656
RightArm 18.627846 -11.648074 90.279672
RightForeArm 0.335615 0.000000 18.843395
RightHand 7.161847 -0.000000 4.484611
RightHandThumb1 -24.326973 -0.000000 -32.862282
LeftUpLeg -12.869843 1.039062 3.725070
LeftLeg 4.811022 -0.000000 -0.000000
LeftFoot -13.617821 17.071803 -17.907619
LeftToeBase -7.550978 -0.000000 0.000000
RightUpLeg -28.465521 9.377784 -1.534078
RightLeg 4.094054 -0.000000 -0.000000
RightFoot 7.393088 -13.486585 8.950520
RightToeBase -8.518418 -0.000000 0.000000
219
root 9.284530 32.950877 13.424192 129.212844 -84.729263 -113.532982
Spine -1.448687 -6.667048 2.176756
Head 25.223795 -4.443192 0.447446
LeftShoulder -10.490150 41.367810 11.273173
LeftArm 61.247542 14.247478 -76.225568
LeftForeArm -14.669041 0.000000 12.308231
LeftHand 4.058569 0.000000 -19.944636
LeftHandThumb1 -26.253704 0.000000 33.147579
RightShoulder -1.533472 -5.369779 -15.835048
RightArm 18.611182 -11.515004 90.514744
RightForeArm 0.037677 0.000000 18.614428
RightHand 7.227859 -0.000000 4.801210
RightHandThumb1 -24.326973 -0.000000 -32.862282
LeftUpLeg -12.856794 1.082540 3.725394
LeftLeg 4.640876 -0.000000 -0.000000
LeftFoot -13.569932 17.007045 -17.926810
LeftToeBase -7.450098 -0.000000 0.000000
RightUpLeg -28.615019 8.977416 -1.409200
RightLeg 4.321371 -0.000000 -0.000000
RightFoot 7.279237 -13.323462 8.899950
RightToeBase -8.656788 -0.000000 0.000000
220
root 9.304169 32.948728 13.390958 130.156997 -84.773643 -114.440013
Spine -1.467070 -6.633703 2.045182
Head 25.093975 -4.480055 0.412361
LeftShoulder -10.465045 41.402768 11.270026
LeftArm 61.268772 14.620768 -75.906952
LeftForeArm -14.607892 -0.000000 12.281804
LeftHand 4.021195 -0.000000 -19.750171
LeftHandThumb1 -26.253704 0.000000 33.147579
RightShoulder -1.457224 -5.359873 -15.902879
RightArm 18.599298 -11.339414 90.767137
RightForeArm -0.247659 -0.000000 18.389123
RightHand 7.297252 -0.000000 5.192788
RightHandThumb1 -24.326973 -0.000000 -32.862282
LeftUpLeg -12.814251 1.106140 3.706026
LeftLeg 4.446125 -0.000000 -0.000000
LeftFoot -13.534565 16.977969 -17.955591
LeftToeBase -7.324044 -0.000000 0.000000
RightUpLeg -28.712068 8.849356 -1.426603
RightLeg 4.374447 -0.000000 -0.000000
RightFoot 7.165782 -13.461649 8.748093
RightToeBase -8.325382 -0.000000 0.000000
221
root 9.323237 32.945861 13.357914 131.090383 -84.839471 -115.318715
Spine -1.487461 -6.586584 1.891433
Head 24.917887 -4.524476 0.413491
LeftShoulder -10.376399 41.433415 11.324202
LeftArm 61.281728 14.993134 -75.604355
LeftForeArm -14.396016 0.000000 12.285084
LeftHand 4.134150 0.000000 -19.878795
LeftHandThumb1 -26.253704 0.000000 33.147579
RightShoulder -1.439414 -5.338306 -15.961682
RightArm 18.547819 -11.456859 90.888854
RightForeArm -0.245780 -0.000000 18.318369
RightHand 7.121978 -0.000000 4.932849
RightHandThumb1 -24.326973 -0.000000 -32.862282
LeftUpLeg -12.791696 1.071873 3.676587
LeftLeg 4.250833 -0.000000 -0.000000
LeftFoot -13.520679 16.987916 -18.027738
LeftToeBase -7.222386 -0.000000 0.000000
RightUpLeg -28.826784 8.727422 -1.483037
RightLeg 4.395221 -0.000000 -0.000000
RightFoot 7.154778 -13.556801 8.522331
RightToeBase -8.462915 -0.000000 0.000000
222
root 9.335925 32.941686 13.321803 131.842511 -84.893139 -116.034566
Spine -1.491044 -6.583620 1.748917
Head 24.747883 -4.525772 0.445592
LeftShoulder -10.315139 41.525528 11.371353
LeftArm 61.311602 15.320785 -75.346431
LeftForeArm -14.363603 -0.000000 12.280791
LeftHand 4.416903 -0.000000 -19.799837
LeftHandThumb1 -26.253704 0.000000 33.147579
RightShoulder -1.398530 -5.348700 -16.002504
RightArm 18.453058 -12.444805 90.578641
RightForeArm 0.585325 -0.000000 18.616215
RightHand 6.950129 -0.000000 4.302732
RightHandThumb1 -24.326973 -0.000000 -32.862282
LeftUpLeg -12.751573 1.074597 3.664980
LeftLeg 4.082139 -0.000000 -0.000000
LeftFoot -13.515009 16.952969 -18.056323
LeftToeBase -7.096364 -0.000000 0.000000
RightUpLeg -28.909462 8.678899 -1.559476
RightLeg 4.374913 -0.000000 -0.000000
RightFoot 7.168148 -13.667374 8.217985
RightToeBase -8.233560 -0.000000 0.000000
